<?xml version="1.0" encoding="utf-8"?>
<!-- Generator: Adobe Illustrator 17.0.2, SVG Export Plug-In . SVG Version: 6.00 Build 0)  -->
<!DOCTYPE svg PUBLIC "-//W3C//DTD SVG 1.1//EN" "http://www.w3.org/Graphics/SVG/1.1/DTD/svg11.dtd">
<svg version="1.1" id="Layer_1" xmlns="http://www.w3.org/2000/svg" xmlns:xlink="http://www.w3.org/1999/xlink" x="0px" y="0px"
	 width="425px" height="175px" viewBox="0 -1.709 425 175" enable-background="new 0 -1.709 425 175" xml:space="preserve">
<g>
	
		<linearGradient id="SVGID_1_" gradientUnits="userSpaceOnUse" x1="159.6085" y1="-163.3465" x2="557.268" y2="-163.3465" gradientTransform="matrix(1 0 0 -1 -156 -95)">
		<stop  offset="0.1276" style="stop-color:#004297"/>
		<stop  offset="0.6224" style="stop-color:#45B3FF"/>
		<stop  offset="1" style="stop-color:#B3E0FF"/>
	</linearGradient>
	<polygon fill="url(#SVGID_1_)" points="3.609,25.169 3.609,111.499 369.429,111.524 401.268,79.684 401.268,25.169 	"/>
	
		<radialGradient id="SVGID_2_" cx="383.7497" cy="-675.4337" r="69.7327" gradientTransform="matrix(1.1369 -0.2606 -0.122 -0.2955 -199.7978 41.8948)" gradientUnits="userSpaceOnUse">
		<stop  offset="0" style="stop-color:#000000;stop-opacity:0.3"/>
		<stop  offset="1" style="stop-color:#000000;stop-opacity:0"/>
	</radialGradient>
	<path fill="url(#SVGID_2_)" d="M398.137,123.318c4.696,11.382-26.991,28.744-70.775,38.779
		c-43.783,10.035-83.084,8.943-87.779-2.439c-4.695-11.382,26.992-28.744,70.775-38.779S393.441,111.937,398.137,123.318z"/>
	<g>
		<g>
			<path fill="#FFFFFF" d="M21.603,62.279h4.777v3.855c0.98-1.321,2.05-2.344,3.212-3.067c1.651-1.086,3.592-1.629,5.824-1.629
				c3.302,0,6.105,1.262,8.409,3.787c2.304,2.524,3.457,6.13,3.457,10.817c0,6.334-1.663,10.858-4.987,13.572
				c-2.107,1.719-4.56,2.578-7.357,2.578c-2.198,0-4.042-0.479-5.532-1.438c-0.872-0.544-1.844-1.475-2.916-2.796v14.847h-4.886
				V62.279z M39.985,85.066c1.516-1.909,2.274-4.764,2.274-8.564c0-2.316-0.336-4.306-1.008-5.971
				c-1.271-3.203-3.595-4.804-6.972-4.804c-3.395,0-5.72,1.693-6.973,5.075c-0.672,1.81-1.008,4.108-1.008,6.895
				c0,2.244,0.336,4.153,1.008,5.728c1.271,3.004,3.595,4.505,6.973,4.505C36.567,87.929,38.469,86.975,39.985,85.066z"/>
			<path fill="#FFFFFF" d="M68.508,73.62c1.122-0.144,1.873-0.613,2.253-1.409c0.217-0.436,0.326-1.062,0.326-1.88
				c0-1.671-0.592-2.883-1.774-3.637c-1.183-0.754-2.876-1.131-5.079-1.131c-2.546,0-4.353,0.691-5.418,2.072
				c-0.596,0.764-0.984,1.901-1.164,3.41h-4.56c0.09-3.593,1.252-6.093,3.484-7.5c2.232-1.406,4.821-2.11,7.767-2.11
				c3.415,0,6.19,0.652,8.323,1.955c2.115,1.303,3.172,3.33,3.172,6.08v16.749c0,0.507,0.104,0.913,0.312,1.221
				c0.208,0.307,0.647,0.46,1.317,0.46c0.217,0,0.461-0.014,0.733-0.04c0.271-0.027,0.561-0.068,0.869-0.122v3.61
				c-0.76,0.216-1.339,0.352-1.737,0.406c-0.398,0.055-0.941,0.082-1.629,0.082c-1.683,0-2.904-0.597-3.664-1.792
				c-0.398-0.633-0.679-1.529-0.841-2.686c-0.996,1.302-2.425,2.433-4.289,3.392c-1.864,0.959-3.918,1.438-6.161,1.438
				c-2.697,0-4.9-0.818-6.609-2.454c-1.71-1.635-2.565-3.683-2.565-6.141c0-2.693,0.841-4.78,2.524-6.262
				c1.683-1.482,3.89-2.395,6.623-2.738L68.508,73.62z M58.22,86.819c1.032,0.813,2.253,1.219,3.664,1.219
				c1.719,0,3.384-0.397,4.995-1.192c2.714-1.319,4.072-3.478,4.072-6.477v-3.93c-0.596,0.382-1.364,0.699-2.302,0.953
				c-0.939,0.255-1.86,0.436-2.763,0.544l-2.953,0.38c-1.77,0.235-3.101,0.605-3.993,1.111c-1.511,0.848-2.266,2.203-2.266,4.061
				C56.673,84.897,57.189,86.007,58.22,86.819z"/>
			<path fill="#FFFFFF" d="M83.979,62.143h4.642v5.022c0.38-0.977,1.312-2.166,2.796-3.569c1.484-1.402,3.193-2.104,5.13-2.104
				c0.09,0,0.244,0.01,0.461,0.027c0.217,0.018,0.588,0.054,1.113,0.109v5.157c-0.29-0.055-0.556-0.09-0.8-0.109
				c-0.244-0.018-0.512-0.027-0.801-0.027c-2.461,0-4.352,0.792-5.673,2.376c-1.321,1.584-1.981,3.406-1.981,5.469v16.72h-4.886
				V62.143z"/>
			<path fill="#FFFFFF" d="M117.936,73.62c1.122-0.144,1.873-0.613,2.253-1.409c0.217-0.436,0.326-1.062,0.326-1.88
				c0-1.671-0.592-2.883-1.774-3.637c-1.183-0.754-2.876-1.131-5.079-1.131c-2.546,0-4.353,0.691-5.418,2.072
				c-0.596,0.764-0.984,1.901-1.164,3.41h-4.56c0.09-3.593,1.252-6.093,3.484-7.5c2.232-1.406,4.821-2.11,7.767-2.11
				c3.415,0,6.19,0.652,8.323,1.955c2.115,1.303,3.172,3.33,3.172,6.08v16.749c0,0.507,0.104,0.913,0.312,1.221
				c0.208,0.307,0.647,0.46,1.317,0.46c0.217,0,0.461-0.014,0.733-0.04c0.271-0.027,0.561-0.068,0.869-0.122v3.61
				c-0.76,0.216-1.339,0.352-1.737,0.406c-0.398,0.055-0.941,0.082-1.629,0.082c-1.683,0-2.904-0.597-3.664-1.792
				c-0.398-0.633-0.679-1.529-0.841-2.686c-0.996,1.302-2.425,2.433-4.289,3.392c-1.864,0.959-3.918,1.438-6.161,1.438
				c-2.697,0-4.9-0.818-6.609-2.454c-1.71-1.635-2.565-3.683-2.565-6.141c0-2.693,0.841-4.78,2.524-6.262
				c1.683-1.482,3.89-2.395,6.623-2.738L117.936,73.62z M107.648,86.819c1.032,0.813,2.253,1.219,3.664,1.219
				c1.719,0,3.384-0.397,4.995-1.192c2.714-1.319,4.072-3.478,4.072-6.477v-3.93c-0.596,0.382-1.364,0.699-2.302,0.953
				c-0.939,0.255-1.86,0.436-2.763,0.544l-2.953,0.38c-1.77,0.235-3.101,0.605-3.993,1.111c-1.511,0.848-2.266,2.203-2.266,4.061
				C106.101,84.897,106.617,86.007,107.648,86.819z"/>
			<path fill="#FFFFFF" d="M136.176,82.093c0.148,1.63,0.562,2.878,1.246,3.747c1.256,1.574,3.435,2.361,6.538,2.361
				c1.846,0,3.471-0.394,4.876-1.181c1.404-0.786,2.106-2.004,2.106-3.651c0-1.249-0.561-2.198-1.683-2.849
				c-0.718-0.398-2.134-0.859-4.248-1.385l-3.945-0.977c-2.519-0.615-4.377-1.302-5.572-2.062c-2.134-1.322-3.2-3.149-3.2-5.484
				c0-2.75,1.004-4.976,3.012-6.677c2.008-1.701,4.708-2.551,8.101-2.551c4.438,0,7.638,1.285,9.6,3.854
				c1.228,1.628,1.825,3.384,1.789,5.265h-4.614c-0.093-1.097-0.492-2.096-1.195-2.996c-1.149-1.277-3.14-1.917-5.974-1.917
				c-1.889,0-3.32,0.351-4.293,1.055c-0.972,0.703-1.458,1.632-1.458,2.785c0,1.262,0.639,2.272,1.917,3.029
				c0.737,0.451,1.825,0.849,3.263,1.192l3.291,0.787c3.577,0.85,5.974,1.673,7.191,2.47c1.9,1.249,2.85,3.212,2.85,5.89
				c0,2.589-0.994,4.822-2.982,6.705c-1.988,1.881-5.015,2.822-9.082,2.822c-4.378,0-7.479-0.981-9.302-2.944
				c-1.823-1.964-2.799-4.392-2.927-7.289H136.176z"/>
			<path fill="#FFFFFF" d="M182.13,65.044c2.569,2.496,3.854,6.165,3.854,11.01c0,4.684-1.132,8.553-3.396,11.609
				c-2.264,3.054-5.777,4.582-10.539,4.582c-3.971,0-7.124-1.35-9.461-4.053c-2.336-2.703-3.503-6.333-3.503-10.889
				c0-4.882,1.231-8.769,3.692-11.662c2.462-2.892,5.768-4.339,9.919-4.339C176.415,61.302,179.56,62.55,182.13,65.044z
				 M179.096,84.365c1.19-2.449,1.785-5.174,1.785-8.174c0-2.711-0.43-4.915-1.289-6.614c-1.36-2.676-3.704-4.012-7.032-4.012
				c-2.952,0-5.099,1.139-6.441,3.416c-1.342,2.277-2.013,5.024-2.013,8.241c0,3.091,0.671,5.667,2.013,7.727
				c1.342,2.061,3.471,3.091,6.388,3.091C175.71,88.038,177.906,86.814,179.096,84.365z"/>
			<path fill="#FFFFFF" d="M192.118,51.34h4.886v39.873h-4.886V51.34z"/>
		</g>
		<rect x="21.603" y="41.569" fill="#FFFFFF" width="175.401" height="4.886"/>
	</g>
	<g>
		<g>
			
				<linearGradient id="SVGID_3_" gradientUnits="userSpaceOnUse" x1="461.2914" y1="-159.4012" x2="455.8479" y2="-124.4073" gradientTransform="matrix(0.981 -0.1941 -0.2155 -1.0892 -182.4827 -29.006)">
				<stop  offset="0" style="stop-color:#004297"/>
				<stop  offset="0.6224" style="stop-color:#45B3FF"/>
				<stop  offset="1" style="stop-color:#B3E0FF"/>
			</linearGradient>
			<path fill="url(#SVGID_3_)" d="M399.613,33.294c3.597-2.739,7.28-5.421,11.05-8.041c2.973-2.066,6-4.093,9.079-6.08
				c-3.152-2.036-6.35-4.029-9.592-5.977c-13.239-8.009-31.314-11.148-48.604-8.22c-18.387,3.055-32.674,11.342-40.309,21.481
				c-0.43,0.567-0.829,1.139-1.217,1.712c0.185-5.777,0.407-11.554,0.664-17.332c0.172-3.849,0.359-7.698,0.563-11.547
				c-5.207,1.557-10.352,3.226-15.434,5.001c-11.372,3.972-22.423,8.48-33.118,13.482c-2.498,1.168-4.976,2.363-7.434,3.584
				c0.586,1.982,1.17,3.965,1.752,5.947c3.437,11.7,6.82,23.414,10.15,35.143c-9.297-8.679-19.238-16.96-29.792-24.775
				c-1.706-1.263-3.427-2.513-5.165-3.751c-2.095,1.247-4.173,2.515-6.234,3.801c-8.195,5.118-16.116,10.546-23.745,16.261
				c-2.895,2.169-5.748,4.378-8.558,6.628c3.124,1.38,6.21,2.802,9.257,4.265c2.819,1.353,5.604,2.742,8.356,4.165
				c-7.508,1.057-14.699,4.163-20.145,8.705c-6.137,5.107-9.472,11.349-9.617,17.212c-0.155,5.945,2.804,11.033,7.884,14.624
				c5.33,3.763,11.845,5.41,18.509,5.068c0.025,0.216,0.051,0.432,0.077,0.648c0.396,3.317,0.83,6.622,1.302,9.914
				c0.217,1.515,0.442,3.026,0.675,4.536c1.901-0.002,3.793,0.019,5.676,0.061c8.185,0.165,16.585-1.807,23.097-5.588
				c13.639-7.844,15.477-20.337,8.484-29.409c-3.59-4.538-10.254-9.615-21.465-8.515c0.001-0.036,0.002-0.072,0.002-0.109
				c0.062-2.995,0.156-5.996,0.283-9.002c17.161,10.089,32.824,21.55,46.839,34.077c1.145,1.023,2.279,2.054,3.403,3.091
				c1.443-0.554,2.893-1.095,4.348-1.624c7.806-2.835,15.786-5.307,23.912-7.399c1.696-0.437,3.399-0.857,5.108-1.26
				c-0.034-1.505-0.065-3.011-0.094-4.516c-0.226-11.736-0.303-23.482-0.23-35.236c9.791,17.178,28.797,24.868,53.993,23.845
				c14.11-0.592,27.482-4.637,35.845-8.544c1.375-0.652,2.76-1.295,4.155-1.927c0.097-1.181,0.192-2.363,0.285-3.545
				c0.848-10.767,1.543-21.557,2.084-32.366c0.141-2.81,0.271-5.621,0.391-8.433c-4.485-0.128-8.95-0.164-13.393-0.11
				C401.662,33.254,400.637,33.271,399.613,33.294z"/>
			<g>
				<g>
					
						<linearGradient id="SVGID_4_" gradientUnits="userSpaceOnUse" x1="218.9789" y1="65.167" x2="223.3137" y2="103.7462" gradientTransform="matrix(0.981 -0.1941 0.2155 1.0892 -8.9785 44.1888)">
						<stop  offset="0" style="stop-color:#FFCD00"/>
						<stop  offset="1" style="stop-color:#AF5B00"/>
					</linearGradient>
					<path fill="url(#SVGID_4_)" d="M233.333,91.12c-2.341,0.617-4.68,1.264-7.016,1.942c-5.145,1.509-8.122,2.75-9.89,1.094
						c-1.664-1.546-0.868-3.675,1.921-5.789c3.231-2.44,6.791-3.452,11.595-3.778c0.073-3.615,0.194-7.239,0.363-10.871
						c-7.85-0.561-15.588,2.296-20.705,6.416c-9.57,7.712-9.791,17.711-3.188,23.092c5.472,4.521,12.231,4.611,17.908,2.988
						c2.258-0.615,4.516-1.2,6.775-1.755c4.612-1.202,7.258-2.009,8.798-0.279c1.433,1.62,0.839,3.435-2.397,5.551
						c-2.943,1.926-7.688,2.934-12.308,3.035c0.169,3.277,0.378,6.543,0.628,9.799c7.03,0.21,13.711-1.785,18.568-4.776
						c9.867-6.055,11.859-15.022,6.755-21.674C246.863,90.627,240.696,89.199,233.333,91.12z"/>
					
						<linearGradient id="SVGID_5_" gradientUnits="userSpaceOnUse" x1="359.5996" y1="45.1912" x2="364.8462" y2="91.8854" gradientTransform="matrix(0.981 -0.1941 0.2155 1.0892 -8.9785 44.1888)">
						<stop  offset="0" style="stop-color:#FFCD00"/>
						<stop  offset="1" style="stop-color:#AF5B00"/>
					</linearGradient>
					<path fill="url(#SVGID_5_)" d="M395.129,38.961c-12.358,0.433-24.526,1.574-36.448,3.376c0.691,4.392,1.349,8.786,1.975,13.182
						c4.239-0.556,8.507-1.025,12.802-1.404c0.24,2.816,0.468,5.632,0.685,8.448c-1.521,0.859-4.083,1.441-6.393,1.666
						c-14.421,1.458-21.899-3.181-24.448-14.187c-2.551-10.862,4.738-19.641,17.573-21.663c7.743-1.193,12.249-0.051,17.383,2.295
						c4.694-4.211,9.564-8.323,14.605-12.326c-7.867-4.409-20.096-7.58-34.739-4.977c-27.171,4.874-42.422,23.156-35.792,42.152
						c6.309,18.562,23.722,23.896,44.085,22.209c11.115-0.97,21.77-4.767,28.404-8.427
						C395.049,59.199,395.152,49.084,395.129,38.961z"/>
					
						<linearGradient id="SVGID_6_" gradientUnits="userSpaceOnUse" x1="270.3835" y1="45.8542" x2="275.2151" y2="88.8555" gradientTransform="matrix(0.981 -0.1941 0.2155 1.0892 -8.9785 44.1888)">
						<stop  offset="0" style="stop-color:#FFCD00"/>
						<stop  offset="1" style="stop-color:#AF5B00"/>
					</linearGradient>
					<path fill="url(#SVGID_6_)" d="M284.565,61.421c1.556,8.227,3.473,15.81,4.882,23.733c-0.161,0.063-0.322,0.126-0.482,0.189
						c-5.789-6.123-11.026-12.197-17.474-18.052c-8.901-8.422-18.387-16.48-28.431-24.117c-7.659,4.643-15.079,9.561-22.245,14.734
						c24.227,13.481,45.793,29.503,64.351,47.354c7.636-3.068,15.453-5.799,23.43-8.175c-1.267-28.013-1.589-56.122-0.961-84.277
						c-10.449,3.642-20.62,7.748-30.484,12.282C279.605,37.206,282.077,49.316,284.565,61.421z"/>
				</g>
				<g>
					
						<linearGradient id="SVGID_7_" gradientUnits="userSpaceOnUse" x1="213.8402" y1="57.8853" x2="221.5324" y2="101.4745" gradientTransform="matrix(0.981 -0.1941 0.2155 1.0892 -8.9785 44.1888)">
						<stop  offset="0.2806" style="stop-color:#FFFFFF"/>
						<stop  offset="1" style="stop-color:#FFFFFF;stop-opacity:0"/>
					</linearGradient>
					<path fill="url(#SVGID_7_)" d="M218.349,88.367c3.231-2.44,6.791-3.452,11.595-3.778c0.073-3.615,0.194-7.239,0.363-10.871
						c-7.85-0.561-15.588,2.296-20.705,6.416c-9.57,7.712-9.791,17.711-3.188,23.092c5.472,4.521,12.231,4.611,17.908,2.988
						c1.135-0.309,2.27-0.611,3.406-0.905c5.683-4.58,11.495-9.167,17.588-13.784c-3.466-1.493-7.524-1.571-11.981-0.406
						c-2.341,0.617-4.68,1.264-7.016,1.942c-5.145,1.509-8.122,2.75-9.89,1.094C214.764,92.61,215.559,90.481,218.349,88.367z"/>
					
						<linearGradient id="SVGID_8_" gradientUnits="userSpaceOnUse" x1="356.5361" y1="30.4743" x2="364.4548" y2="75.3469" gradientTransform="matrix(0.981 -0.1941 0.2155 1.0892 -8.9785 44.1888)">
						<stop  offset="0.2806" style="stop-color:#FFFFFF"/>
						<stop  offset="1" style="stop-color:#FFFFFF;stop-opacity:0"/>
					</linearGradient>
					<path fill="url(#SVGID_8_)" d="M378.257,30.674c4.694-4.211,9.564-8.323,14.605-12.326c-7.867-4.409-20.096-7.58-34.739-4.977
						c-24.539,4.369-39.704,20.034-36.967,37.124c7.212-1.781,14.502-3.055,21.696-3.87c-0.472-9.248,6.638-16.46,18.022-18.245
						C368.617,27.186,373.123,28.328,378.257,30.674z"/>
					
						<linearGradient id="SVGID_9_" gradientUnits="userSpaceOnUse" x1="367.5323" y1="-0.1574" x2="384.09" y2="93.6697" gradientTransform="matrix(0.981 -0.1941 0.2155 1.0892 -8.9785 44.1888)">
						<stop  offset="0.2806" style="stop-color:#FFFFFF"/>
						<stop  offset="1" style="stop-color:#FFFFFF;stop-opacity:0"/>
					</linearGradient>
					<path fill="url(#SVGID_9_)" d="M395.129,38.961c-12.358,0.433-24.526,1.574-36.448,3.376c0.167,1.06,0.331,2.12,0.494,3.18
						c13.289-0.308,25.536,0.862,35.94,2.644C395.131,45.095,395.136,42.028,395.129,38.961z"/>
					
						<linearGradient id="SVGID_10_" gradientUnits="userSpaceOnUse" x1="244.6774" y1="43.1426" x2="253.2367" y2="91.6454" gradientTransform="matrix(0.981 -0.1941 0.2155 1.0892 -8.9785 44.1888)">
						<stop  offset="0.2806" style="stop-color:#FFFFFF"/>
						<stop  offset="1" style="stop-color:#FFFFFF;stop-opacity:0"/>
					</linearGradient>
					<path fill="url(#SVGID_10_)" d="M243.059,43.176c-7.659,4.643-15.079,9.561-22.245,14.734
						c13.228,7.361,25.666,15.48,37.251,24.241c5.34-3.802,10.965-7.639,16.976-11.5c-1.148-1.126-2.326-2.25-3.55-3.359
						C262.589,58.87,253.103,50.812,243.059,43.176z"/>
					
						<linearGradient id="SVGID_11_" gradientUnits="userSpaceOnUse" x1="297.735" y1="31.976" x2="306.539" y2="81.8649" gradientTransform="matrix(0.981 -0.1941 0.2155 1.0892 -8.9785 44.1888)">
						<stop  offset="0.2806" style="stop-color:#FFFFFF"/>
						<stop  offset="1" style="stop-color:#FFFFFF;stop-opacity:0"/>
					</linearGradient>
					<path fill="url(#SVGID_11_)" d="M284.565,61.421c0.193,1.025,0.393,2.039,0.596,3.045c6.911-3.875,14.407-7.2,22.237-9.909
						c-0.154-13.9-0.075-27.817,0.235-41.745c-10.449,3.642-20.62,7.748-30.484,12.282
						C279.605,37.206,282.077,49.316,284.565,61.421z"/>
				</g>
			</g>
		</g>
	</g>
</g>
</svg>
